<?xml version="1.0" encoding="utf-8"?>
<!-- Generator: Adobe Illustrator 26.0.1, SVG Export Plug-In . SVG Version: 6.00 Build 0)  -->
<svg version="1.1" id="Слой_1" xmlns="http://www.w3.org/2000/svg" xmlns:xlink="http://www.w3.org/1999/xlink" x="0px" y="0px"
	 viewBox="0 0 30 30" style="enable-background:new 0 0 30 30;" xml:space="preserve">
<style type="text/css">
	.st0{fill:#FFFFFF;}
</style>
<g>
	<path class="st0" d="M0,30c0-0.3,0-0.5,0-0.7c0-6.2,0-12.5,0-18.7C0,4.6,4.6,0,10.6,0c3,0,5.9,0,8.9,0C25.4,0,30,4.6,30,10.5
		c0,3,0,6.1,0,9.1C30,25.4,25.4,30,19.6,30C13.3,30,7,30,0.6,30C0.5,30,0.3,30,0,30z M1.4,28.6c0.3,0,0.5,0,0.7,0
		c4.1,0,8.1,0,12.2,0c2,0,4,0.1,6,0c4.4-0.2,8.1-3.8,8.3-8.2c0.2-3.5,0.2-7,0-10.5c-0.2-4.9-4.2-8.5-9.1-8.5c-3,0-5.9,0-8.9,0
		c-5.3,0-9.3,4-9.3,9.3c0,5.8,0,11.6,0,17.3C1.4,28.2,1.4,28.4,1.4,28.6z"/>
	<path class="st0" d="M15,5c1.5,0,3,0,4.6,0c3.4,0,6.1,2.7,6.2,6.1c0,3.1,0,6.2,0,9.4c0,3.4-2.7,6-6.1,6.1c-3.1,0-6.1,0-9.2,0
		c-3.5,0-6.2-2.8-6.2-6.3c0-3,0-6,0-8.9C4.3,7.7,6.9,5,10.5,5C12,5,13.5,5,15,5z M15.1,7.1c-1.5,0-3,0-4.6,0c-2.4,0-4.2,1.8-4.2,4.2
		c0,3,0,6,0,9c0,2.4,1.8,4.2,4.2,4.2c3,0,6,0,8.9,0c2.5,0,4.2-1.8,4.2-4.2c0-3,0-6,0-8.9c0-2.4-1.8-4.2-4.2-4.2
		C18,7.1,16.5,7.1,15.1,7.1z"/>
	<path class="st0" d="M15,10.2c3.1,0,5.6,2.5,5.6,5.6c0,3.1-2.5,5.6-5.6,5.6c-3.1,0-5.6-2.5-5.6-5.6C9.4,12.7,11.9,10.2,15,10.2z
		 M15,12.2c-2,0-3.5,1.6-3.5,3.6c0,2,1.6,3.6,3.6,3.6c2,0,3.6-1.6,3.6-3.6C18.6,13.8,17,12.2,15,12.2z"/>
	<path class="st0" d="M21.9,10c0,0.8-0.6,1.4-1.4,1.4c-0.8,0-1.4-0.6-1.4-1.4c0-0.8,0.6-1.4,1.4-1.4C21.3,8.6,21.9,9.2,21.9,10z"/>
</g>
</svg>
