<svg width="74" height="20" viewBox="0 0 74 20" fill="none" xmlns="http://www.w3.org/2000/svg">
<path d="M34.2 0.600098V19.5001H73.5V0.600098H34.2Z" fill="#706F6F"/>
<path d="M43.9 18.8002C42.6 19.2002 41.5 19.4002 40.5 19.4002C38.8 19.4002 37.5 18.9002 36.6 18.0002C35.7 17.0002 35.2 15.7002 35.2 13.8002C35.2 12.0002 35.7 10.6002 36.6 9.7002C37.5 8.8002 38.8 8.2002 40.5 8.2002C41.6 8.2002 42.7 8.4002 43.9 8.7002V10.1002C42.4 9.6002 41.3 9.4002 40.5 9.4002C39.4 9.4002 38.4 9.8002 37.8 10.6002C37.2 11.4002 36.8 12.5002 36.8 13.9002C36.8 15.3002 37.1 16.4002 37.8 17.2002C38.5 18.0002 39.4 18.4002 40.7 18.4002C41.2 18.4002 41.7 18.3002 42.3 18.1002V14.6002H44L43.9 18.8002Z" fill="white"/>
<path d="M64.3 19.0999H58V8.3999H59.5V17.9999H64.3V19.0999Z" fill="white"/>
<path d="M72.3 19.0999H66V8.3999H72V9.5999H67.6V12.9999H71.3V14.0999H67.6V17.9999H72.3V19.0999Z" fill="white"/>
<path d="M9 15.1002L4 1.2002H0.5V19.1002H2.7V4.5002L7.5 17.9002H9.9L14.8 4.6002V19.1002H17.2V1.2002H14.1L9 15.1002Z" fill="#706F6F"/>
<path d="M24.4 10.7002H30.6V8.8002H24.4V3.1002H31.9V1.2002H21.8V19.1002H32.4V17.2002H24.4V10.7002Z" fill="#706F6F"/>
<path d="M52 8.3999H50.5L46.3 19.0999H47.7L48.9 16.0999H53.4L54.6 19.0999H56.2L52 8.3999ZM49.3 14.9999L51.1 10.3999L53 14.9999H49.3Z" fill="white"/>
</svg>
