<?xml version="1.0" encoding="utf-8"?>
<!-- Generator: Adobe Illustrator 26.0.1, SVG Export Plug-In . SVG Version: 6.00 Build 0)  -->
<svg version="1.1" id="Слой_1" xmlns="http://www.w3.org/2000/svg" xmlns:xlink="http://www.w3.org/1999/xlink" x="0px" y="0px"
	 viewBox="0 0 30 30" style="enable-background:new 0 0 30 30;" xml:space="preserve">
<style type="text/css">
	.st0{fill:#FFFFFF;}
</style>
<g>
	<path class="st0" d="M0,30c0-0.3,0-0.5,0-0.7C0,23,0,16.7,0,10.4C0,5.5,3.4,1.3,8.2,0.3C9,0.1,9.7,0,10.5,0c3,0,6,0,9,0
		C25.3,0,29.9,4.6,30,10.4c0,3.1,0,6.2,0,9.3C29.9,25.4,25.3,30,19.6,30C13.3,30,7,30,0.7,30C0.5,30,0.3,30,0,30z M1.4,28.6
		c0.2,0,0.3,0,0.5,0c5.9,0,11.9,0,17.8,0c5,0,8.9-4,8.9-9.1c0-3,0-6,0-9c0-5.2-4-9.2-9.2-9.2c-2.9,0-5.8,0-8.7,0
		c-5.4,0-9.3,3.9-9.3,9.3c0,5.7,0,11.5,0,17.2C1.4,28.1,1.4,28.3,1.4,28.6z"/>
	<path class="st0" d="M4.6,25.7c0.3-1.3,0.5-2.5,0.8-3.7c0.3-1.1,0.2-2-0.2-3.1c-1.6-4.1-1-8,2-11.2c3-3.3,6.8-4.3,11-2.9
		c4.2,1.3,6.7,4.4,7.3,8.8c0.9,6.4-4.2,12.1-10.6,12c-1.7,0-3.3-0.5-4.8-1.1c-0.2-0.1-0.6-0.1-0.8-0.1C7.8,24.8,6.2,25.3,4.6,25.7z
		 M7.1,23c0.8-0.2,1.6-0.4,2.3-0.7c0.4-0.1,0.7-0.1,1.1,0.1c0.6,0.3,1.2,0.6,1.9,0.8c6.5,1.9,12.6-3.6,11.2-10.1
		c-0.8-3.7-3.1-6-6.7-6.8c-3.7-0.8-6.8,0.4-9,3.5c-2.1,3.1-2.2,6.3-0.3,9.6c0.2,0.3,0.3,0.6,0.2,1C7.5,21.3,7.3,22.1,7.1,23z"/>
	<path class="st0" d="M11.7,10.1c0.4,0,0.7,0.1,0.8,0.5c0.2,0.6,0.5,1.1,0.7,1.7c0.2,0.4,0.1,0.8-0.2,1.2c-0.6,0.6-0.6,0.8-0.1,1.4
		c0.7,1,1.7,1.8,2.8,2.4c0.5,0.2,0.8,0.1,1.1-0.3c0,0,0,0,0,0c0.8-1,0.9-1,2.1-0.4c0.2,0.1,0.5,0.2,0.7,0.4c0.7,0.4,0.9,1.1,0.4,1.7
		c-0.5,0.8-1.3,1.3-2.4,1.2c-1.5-0.1-2.8-0.7-4-1.6c-1.5-1.1-2.7-2.5-3.5-4.2c-0.6-1.2-0.4-2.4,0.5-3.4c0.2-0.3,0.6-0.4,0.9-0.6
		C11.6,10,11.6,10.1,11.7,10.1z"/>
</g>
</svg>
