<!DOCTYPE svg  PUBLIC '-//W3C//DTD SVG 1.1//EN'  'http://www.w3.org/Graphics/SVG/1.1/DTD/svg11.dtd'><svg style="display: none;" aria-hidden="true" xmlns="http://www.w3.org/2000/svg" xmlns:xlink="http://www.w3.org/1999/xlink"><symbol viewBox="0 0 74 20" fill="none" id="svg-MEGale"><path d="M34.2 0.600098V19.5001H73.5V0.600098H34.2Z" fill="#706F6F"/><path d="M43.9 18.8002C42.6 19.2002 41.5 19.4002 40.5 19.4002 38.8 19.4002 37.5 18.9002 36.6 18.0002 35.7 17.0002 35.2 15.7002 35.2 13.8002 35.2 12.0002 35.7 10.6002 36.6 9.7002 37.5 8.8002 38.8 8.2002 40.5 8.2002 41.6 8.2002 42.7 8.4002 43.9 8.7002V10.1002C42.4 9.6002 41.3 9.4002 40.5 9.4002 39.4 9.4002 38.4 9.8002 37.8 10.6002 37.2 11.4002 36.8 12.5002 36.8 13.9002 36.8 15.3002 37.1 16.4002 37.8 17.2002 38.5 18.0002 39.4 18.4002 40.7 18.4002 41.2 18.4002 41.7 18.3002 42.3 18.1002V14.6002H44L43.9 18.8002zM64.3 19.0999H58V8.3999H59.5V17.9999H64.3V19.0999zM72.3 19.0999H66V8.3999H72V9.5999H67.6V12.9999H71.3V14.0999H67.6V17.9999H72.3V19.0999z" fill="#fff"/><path d="M9 15.1002L4 1.2002H.5V19.1002H2.7V4.5002L7.5 17.9002H9.9L14.8 4.6002V19.1002H17.2V1.2002H14.1L9 15.1002zM24.4 10.7002H30.6V8.8002H24.4V3.1002H31.9V1.2002H21.8V19.1002H32.4V17.2002H24.4V10.7002z" fill="#706F6F"/><path d="M52 8.3999H50.5L46.3 19.0999H47.7L48.9 16.0999H53.4L54.6 19.0999H56.2L52 8.3999ZM49.3 14.9999L51.1 10.3999L53 14.9999H49.3Z" fill="#fff"/></symbol><symbol viewBox="0 0 512 512" id="svg-arrow-left"><path d="M352 115.4L331.3 96 160 256 331.3 416 352 396.7 201.5 256z"/></symbol><symbol viewBox="0 0 512 512" id="svg-arrow-right"><path d="M160 115.4L180.7 96 352 256 180.7 416 160 396.7 310.5 256z"/></symbol><symbol id="svg-instagram" viewBox="0 0 30 30" xml:space="preserve"><style></style><path class="dst0" d="M0,30c0-0.3,0-0.5,0-0.7c0-6.2,0-12.5,0-18.7C0,4.6,4.6,0,10.6,0c3,0,5.9,0,8.9,0C25.4,0,30,4.6,30,10.5 c0,3,0,6.1,0,9.1C30,25.4,25.4,30,19.6,30C13.3,30,7,30,0.6,30C0.5,30,0.3,30,0,30z M1.4,28.6c0.3,0,0.5,0,0.7,0 c4.1,0,8.1,0,12.2,0c2,0,4,0.1,6,0c4.4-0.2,8.1-3.8,8.3-8.2c0.2-3.5,0.2-7,0-10.5c-0.2-4.9-4.2-8.5-9.1-8.5c-3,0-5.9,0-8.9,0 c-5.3,0-9.3,4-9.3,9.3c0,5.8,0,11.6,0,17.3C1.4,28.2,1.4,28.4,1.4,28.6z"/><path class="dst0" d="M15,5c1.5,0,3,0,4.6,0c3.4,0,6.1,2.7,6.2,6.1c0,3.1,0,6.2,0,9.4c0,3.4-2.7,6-6.1,6.1c-3.1,0-6.1,0-9.2,0 c-3.5,0-6.2-2.8-6.2-6.3c0-3,0-6,0-8.9C4.3,7.7,6.9,5,10.5,5C12,5,13.5,5,15,5z M15.1,7.1c-1.5,0-3,0-4.6,0c-2.4,0-4.2,1.8-4.2,4.2 c0,3,0,6,0,9c0,2.4,1.8,4.2,4.2,4.2c3,0,6,0,8.9,0c2.5,0,4.2-1.8,4.2-4.2c0-3,0-6,0-8.9c0-2.4-1.8-4.2-4.2-4.2 C18,7.1,16.5,7.1,15.1,7.1z"/><path class="dst0" d="M15 10.2c3.1 0 5.6 2.5 5.6 5.6 0 3.1-2.5 5.6-5.6 5.6-3.1 0-5.6-2.5-5.6-5.6C9.4 12.7 11.9 10.2 15 10.2zM15 12.2c-2 0-3.5 1.6-3.5 3.6 0 2 1.6 3.6 3.6 3.6 2 0 3.6-1.6 3.6-3.6C18.6 13.8 17 12.2 15 12.2zM21.9 10c0 .8-.6 1.4-1.4 1.4-.8 0-1.4-.6-1.4-1.4 0-.8.6-1.4 1.4-1.4C21.3 8.6 21.9 9.2 21.9 10z"/></symbol><symbol id="svg-whatsapp" viewBox="0 0 30 30" xml:space="preserve"><style>.st0{fill:#fff}</style><path class="est0" d="M0,30c0-0.3,0-0.5,0-0.7C0,23,0,16.7,0,10.4C0,5.5,3.4,1.3,8.2,0.3C9,0.1,9.7,0,10.5,0c3,0,6,0,9,0 C25.3,0,29.9,4.6,30,10.4c0,3.1,0,6.2,0,9.3C29.9,25.4,25.3,30,19.6,30C13.3,30,7,30,0.7,30C0.5,30,0.3,30,0,30z M1.4,28.6 c0.2,0,0.3,0,0.5,0c5.9,0,11.9,0,17.8,0c5,0,8.9-4,8.9-9.1c0-3,0-6,0-9c0-5.2-4-9.2-9.2-9.2c-2.9,0-5.8,0-8.7,0 c-5.4,0-9.3,3.9-9.3,9.3c0,5.7,0,11.5,0,17.2C1.4,28.1,1.4,28.3,1.4,28.6z"/><path class="est0" d="M4.6,25.7c0.3-1.3,0.5-2.5,0.8-3.7c0.3-1.1,0.2-2-0.2-3.1c-1.6-4.1-1-8,2-11.2c3-3.3,6.8-4.3,11-2.9 c4.2,1.3,6.7,4.4,7.3,8.8c0.9,6.4-4.2,12.1-10.6,12c-1.7,0-3.3-0.5-4.8-1.1c-0.2-0.1-0.6-0.1-0.8-0.1C7.8,24.8,6.2,25.3,4.6,25.7z M7.1,23c0.8-0.2,1.6-0.4,2.3-0.7c0.4-0.1,0.7-0.1,1.1,0.1c0.6,0.3,1.2,0.6,1.9,0.8c6.5,1.9,12.6-3.6,11.2-10.1 c-0.8-3.7-3.1-6-6.7-6.8c-3.7-0.8-6.8,0.4-9,3.5c-2.1,3.1-2.2,6.3-0.3,9.6c0.2,0.3,0.3,0.6,0.2,1C7.5,21.3,7.3,22.1,7.1,23z"/><path class="est0" d="M11.7,10.1c0.4,0,0.7,0.1,0.8,0.5c0.2,0.6,0.5,1.1,0.7,1.7c0.2,0.4,0.1,0.8-0.2,1.2c-0.6,0.6-0.6,0.8-0.1,1.4 c0.7,1,1.7,1.8,2.8,2.4c0.5,0.2,0.8,0.1,1.1-0.3c0,0,0,0,0,0c0.8-1,0.9-1,2.1-0.4c0.2,0.1,0.5,0.2,0.7,0.4c0.7,0.4,0.9,1.1,0.4,1.7 c-0.5,0.8-1.3,1.3-2.4,1.2c-1.5-0.1-2.8-0.7-4-1.6c-1.5-1.1-2.7-2.5-3.5-4.2c-0.6-1.2-0.4-2.4,0.5-3.4c0.2-0.3,0.6-0.4,0.9-0.6 C11.6,10,11.6,10.1,11.7,10.1z"/></symbol></svg>